<?xml version="1.0" encoding="UTF-8"?>
<svg width="460" height="140" viewBox="0 0 460 140" xmlns="http://www.w3.org/2000/svg">
    <!-- Fundo sutil com padrão -->
    <defs>
        <pattern id="runePattern" x="0" y="0" width="30" height="30" patternUnits="userSpaceOnUse" opacity="0.05">
            <path d="M15,5 L20,15 L15,25 L10,15 Z" fill="#FFD700"/>
        </pattern>
        
        <!-- Gradientes para efeitos metálicos -->
        <linearGradient id="swordGradient" x1="0%" y1="0%" x2="100%" y2="100%">
            <stop offset="0%" style="stop-color:#FFD700;stop-opacity:1" />
            <stop offset="50%" style="stop-color:#FFA500;stop-opacity:1" />
            <stop offset="100%" style="stop-color:#FFD700;stop-opacity:1" />
        </linearGradient>
        
        <filter id="glow">
            <feGaussianBlur stdDeviation="2" result="coloredBlur"/>
            <feMerge>
                <feMergeNode in="coloredBlur"/>
                <feMergeNode in="SourceGraphic"/>
            </feMerge>
        </filter>

        <!-- Filtro para efeito metálico -->
        <filter id="metallic">
            <feGaussianBlur in="SourceAlpha" stdDeviation="2" result="blur"/>
            <feSpecularLighting in="blur" surfaceScale="5" specularConstant=".75" specularExponent="20" lighting-color="#FFF" result="specOut">
                <fePointLight x="100" y="100" z="200"/>
            </feSpecularLighting>
            <feComposite in="specOut" in2="SourceAlpha" operator="in" result="specOut"/>
            <feComposite in="SourceGraphic" in2="specOut" operator="arithmetic" k1="0" k2="1" k3="1" k4="0"/>
        </filter>
    </defs>

    <!-- Fundo com padrão de runas -->
    <rect width="100%" height="100%" fill="url(#runePattern)"/>

    <!-- Espadas cruzadas com detalhes -->
    <g transform="translate(180, 30)" filter="url(#metallic)">
        <!-- Espada 1 -->
        <path d="M50,0 L60,10 L100,80 L90,90 L40,20 L30,10 Z" fill="url(#swordGradient)">
            <!-- Runas animadas na espada -->
            <animate attributeName="opacity" values="0.8;1;0.8" dur="3s" repeatCount="indefinite"/>
        </path>
        <!-- Detalhes da lâmina 1 -->
        <path d="M45,5 L55,15 L90,75 L85,80 L40,25 L35,15 Z" fill="#FFD700" opacity="0.3"/>
        
        <!-- Espada 2 -->
        <path d="M0,80 L10,90 L60,20 L50,10 L10,80 L0,90 Z" fill="url(#swordGradient)">
            <animate attributeName="opacity" values="0.8;1;0.8" dur="3s" repeatCount="indefinite"/>
        </path>
        <!-- Detalhes da lâmina 2 -->
        <path d="M5,85 L15,85 L55,25 L45,15 L15,75 L5,85 Z" fill="#FFD700" opacity="0.3"/>
        
        <!-- Detalhes ornamentais -->
        <circle cx="50" cy="50" r="3" fill="#FFD700" opacity="0.8"/>
        <path d="M47,47 L53,53 M47,53 L53,47" stroke="#FFD700" stroke-width="1" opacity="0.6"/>
    </g>

    <!-- Texto TAREN com efeitos -->
    <g transform="translate(100, 100)" filter="url(#glow)">
        <text font-family="Cinzel, serif" font-size="48" font-weight="bold" fill="#FFD700" letter-spacing="2">
            TAREN
            <animate attributeName="fill-opacity" values="0.9;1;0.9" dur="4s" repeatCount="indefinite"/>
        </text>
    </g>

    <!-- Texto ONLINE com efeitos -->
    <g transform="translate(240, 120)" filter="url(#glow)">
        <text font-family="Cinzel, serif" font-size="24" font-weight="500" fill="#FFD700" letter-spacing="4">
            ONLINE
            <animate attributeName="fill-opacity" values="0.8;1;0.8" dur="4s" repeatCount="indefinite"/>
        </text>
    </g>

    <!-- Ornamentos decorativos -->
    <g transform="translate(80, 90)" opacity="0.6">
        <path d="M0,0 C10,-5 20,-5 30,0" stroke="#FFD700" stroke-width="1" fill="none"/>
        <path d="M300,0 C290,-5 280,-5 270,0" stroke="#FFD700" stroke-width="1" fill="none"/>
    </g>
</svg>
